<?xml version="1.0" encoding="UTF-8" standalone="no"?>
<svg
   width="195"
   height="195"
   viewBox="0 0 195 195"
   fill="none"
   version="1.1"
   id="svg3"
   sodipodi:docname="mcp-logo.svg"
   inkscape:version="1.4.3 (0d15f75, 2025-12-25)"
   xmlns:inkscape="http://www.inkscape.org/namespaces/inkscape"
   xmlns:sodipodi="http://sodipodi.sourceforge.net/DTD/sodipodi-0.dtd"
   xmlns="http://www.w3.org/2000/svg"
   xmlns:svg="http://www.w3.org/2000/svg">
  <defs
     id="defs3" />
  <sodipodi:namedview
     id="namedview3"
     pagecolor="#ffffff"
     bordercolor="#000000"
     borderopacity="0.25"
     inkscape:showpageshadow="2"
     inkscape:pageopacity="0.0"
     inkscape:pagecheckerboard="0"
     inkscape:deskcolor="#d1d1d1"
     inkscape:zoom="1.094342"
     inkscape:cx="117.42216"
     inkscape:cy="38.836124"
     inkscape:window-width="2560"
     inkscape:window-height="1440"
     inkscape:window-x="0"
     inkscape:window-y="0"
     inkscape:window-maximized="0"
     inkscape:current-layer="svg3" />
  <path
     d="M 25,97.8528 92.8823,29.9706 c 9.3727,-9.3726 24.5687,-9.3726 33.9407,0 v 0 c 9.373,9.3725 9.373,24.5685 0,33.9411 L 75.5581,115.177"
     stroke="#000000"
     stroke-width="12"
     stroke-linecap="round"
     id="path1" />
  <path
     d="M 76.2653,114.47 126.823,63.9117 c 9.373,-9.3726 24.569,-9.3726 33.942,0 l 0.353,0.3535 c 9.373,9.3726 9.373,24.5686 0,33.9411 L 99.7248,159.6 c -3.1242,3.124 -3.1242,8.189 0,11.313 l 12.6062,12.607"
     stroke="#000000"
     stroke-width="12"
     stroke-linecap="round"
     id="path2" />
  <path
     d="M 109.853,46.9411 59.6482,97.1457 c -9.3725,9.3723 -9.3725,24.5683 0,33.9413 v 0 c 9.3726,9.372 24.5686,9.372 33.9412,0 L 143.794,80.8822"
     stroke="#000000"
     stroke-width="12"
     stroke-linecap="round"
     id="path3" />
</svg>
